<?xml version="1.0" encoding="utf-8"?>
<svg version="1.1" xmlns:xlink="http://www.w3.org/1999/xlink" width="29px" height="29px" xmlns="http://www.w3.org/2000/svg">
  <defs>
    <filter x="10px" y="542px" width="29px" height="29px" filterUnits="userSpaceOnUse" id="filter9">
      <feOffset dx="5" dy="5" in="SourceAlpha" result="shadowOffsetInner" />
      <feGaussianBlur stdDeviation="2.5" in="shadowOffsetInner" result="shadowGaussian" />
      <feComposite in2="shadowGaussian" operator="atop" in="SourceAlpha" result="shadowComposite" />
      <feColorMatrix type="matrix" values="0 0 0 0 0  0 0 0 0 0  0 0 0 0 0  0 0 0 0.349019607843137 0  " in="shadowComposite" />
    </filter>
    <g id="widget10">
      <path d="M 19.5 543  C 24.26 543  28 546.74  28 551.5  C 28 556.26  24.26 560  19.5 560  C 14.74 560  11 556.26  11 551.5  C 11 546.74  14.74 543  19.5 543  Z " fill-rule="nonzero" fill="#ff3366" stroke="none" />
      <path d="M 19.5 543  C 24.26 543  28 546.74  28 551.5  C 28 556.26  24.26 560  19.5 560  C 14.74 560  11 556.26  11 551.5  C 11 546.74  14.74 543  19.5 543  Z " stroke-width="2" stroke="#ffffff" fill="none" />
    </g>
  </defs>
  <g transform="matrix(1 0 0 1 -10 -542 )">
    <use xlink:href="#widget10" filter="url(#filter9)" />
    <use xlink:href="#widget10" />
  </g>
</svg>