<?xml version="1.0" encoding="utf-8"?>
<svg version="1.1" xmlns:xlink="http://www.w3.org/1999/xlink" width="17px" height="17px" xmlns="http://www.w3.org/2000/svg">
  <g transform="matrix(1 0 0 1 -1395 -198 )">
    <path d="M 16.908625 2.22558333333333  C 16.8484166666667 2.20716666666667  16.7733333333333 2.19725  16.683375 2.19725  L 10.988375 2.19725  L 10.988375 3.25125  L 12.667125 3.25125  L 12.667125 4.91866666666667  L 10.988375 4.91866666666667  L 10.988375 5.44991666666667  L 12.667125 5.44991666666667  L 12.667125 7.11945833333333  L 10.988375 7.11945833333333  L 10.988375 7.66558333333333  L 12.667125 7.66558333333333  L 12.667125 9.24445833333334  L 10.988375 9.24445833333334  L 10.988375 9.877  L 12.667125 9.877  L 12.667125 11.4594166666667  L 10.988375 11.4594166666667  L 10.988375 12.0919583333333  L 12.667125 12.0919583333333  L 12.667125 13.6835833333333  L 10.988375 13.6835833333333  L 10.988375 14.8445416666667  L 16.683375 14.8445416666667  C 16.7733333333333 14.817625  16.8484166666667 14.711375  16.908625 14.5272083333333  C 16.9688333333333 14.341625  17 14.19075  17 14.0767083333333  L 17 2.38991666666667  C 17 2.29925  16.9688333333333 2.24470833333333  16.908625 2.22558333333333  Z M 15.9445833333333 13.6835833333333  L 15.9445833333333 13.6821666666667  L 13.2125416666667 13.6821666666667  L 13.2125416666667 12.0919583333333  L 15.9445833333333 12.0919583333333  L 15.9445833333333 13.6835833333333  Z M 15.9445833333333 9.87629166666667  L 15.9445833333333 11.4594166666667  L 13.2125416666667 11.4594166666667  L 13.2125416666667 9.87629166666667  L 15.9445833333333 9.87629166666667  Z M 15.9445833333333 9.24516666666667  L 15.9445833333333 9.24375  L 13.2125416666667 9.24375  L 13.2125416666667 7.67195833333333  L 15.9445833333333 7.67195833333333  L 15.9445833333333 9.24516666666667  Z M 15.9445833333333 7.11875  L 13.2125416666667 7.11875  L 13.2125416666667 5.45133333333333  L 15.9445833333333 5.45133333333333  L 15.9445833333333 7.11945833333333  Z M 15.9445833333333 4.92008333333333  L 15.9445833333333 4.90945833333333  L 13.2125416666667 4.90945833333333  L 13.2125416666667 3.25195833333333  L 15.9445833333333 3.25195833333333  L 15.9445833333333 4.92008333333333  Z M 0 1.940125  L 0 1.93445833333333  L 0 15.1101666666667  L 10 16.844875  L 10 0.155125  L 0 1.940125  Z M 5.94504166666667 11.9  L 5.94504166666667 11.9014166666667  C 5.90679166666667 11.798  5.726875 11.3588333333333  5.408125 10.5817916666667  C 5.09008333333333 9.80545833333333  4.898125 9.35354166666667  4.84216666666667 9.224625  L 4.82445833333333 9.224625  L 3.7485 11.78525  L 2.31058333333333 11.6882083333333  L 4.01625 8.50070833333333  L 2.454375 5.31320833333333  L 3.920625 5.236  L 4.889625 7.73004166666666  L 4.90875 7.73004166666666  L 6.003125 5.12266666666666  L 7.51825 5.02704166666666  L 5.714125 8.476625  L 7.5735 11.995625  L 5.94504166666667 11.9  Z " fill-rule="nonzero" fill="#217346" stroke="none" transform="matrix(1 0 0 1 1395 198 )" />
  </g>
</svg>